<svg width="22" height="23" viewBox="0 0 22 23" fill="none" xmlns="http://www.w3.org/2000/svg">
<path d="M15.5 22V18.9905C15.5375 18.4906 15.4731 17.9879 15.311 17.516C15.1489 17.0441 14.8929 16.6138 14.56 16.2537C17.7 15.8867 21 14.6389 21 8.91353C20.9997 7.44951 20.4627 6.04164 19.5 4.9813C19.9558 3.70045 19.9236 2.28468 19.41 1.0281C19.41 1.0281 18.23 0.661087 15.5 2.58002C13.208 1.92865 10.792 1.92865 8.50005 2.58002C5.77006 0.661087 4.59007 1.0281 4.59007 1.0281C4.07644 2.28468 4.04421 3.70045 4.50007 4.9813C3.53019 6.0495 2.9926 7.47011 3.00008 8.94499C3.00008 14.6284 6.30005 15.8762 9.44004 16.2852C9.11104 16.6417 8.85731 17.0668 8.69535 17.5329C8.5334 17.999 8.46685 18.4957 8.50005 18.9905V22" stroke="white" stroke-linecap="round" stroke-linejoin="round"/>
<path d="M8 19.6756C5 20.5436 2.5 19.6756 1 17" stroke="white" stroke-linecap="round" stroke-linejoin="round"/>
</svg>
